<svg xmlns="http://www.w3.org/2000/svg" viewBox="0 0 64 64" role="img" aria-label="The Ziggurat icon">
  <defs>
    <linearGradient id="stone" x1="16" x2="48" y1="14" y2="54" gradientUnits="userSpaceOnUse">
      <stop stop-color="#1b2529"/>
      <stop offset="1" stop-color="#05090b"/>
    </linearGradient>
    <linearGradient id="cyan" x1="16" x2="48" y1="20" y2="50" gradientUnits="userSpaceOnUse">
      <stop stop-color="#7af7ff"/>
      <stop offset=".55" stop-color="#16d7ff"/>
      <stop offset="1" stop-color="#0692c5"/>
    </linearGradient>
    <linearGradient id="gold" x1="28" x2="36" y1="8" y2="18" gradientUnits="userSpaceOnUse">
      <stop stop-color="#fff1a6"/>
      <stop offset="1" stop-color="#d99a32"/>
    </linearGradient>
  </defs>
  <rect x="4" y="4" width="56" height="56" rx="13" fill="#03090b"/>
  <path d="M32 11 42 23H22L32 11Z" fill="url(#stone)" stroke="#1fe7ff" stroke-width="1.8" stroke-linejoin="round"/>
  <path d="M19 25h26l4 9H15l4-9Z" fill="url(#stone)" stroke="#1287a5" stroke-width="1.5" stroke-linejoin="round"/>
  <path d="M13 36h38l4 10H9l4-10Z" fill="url(#stone)" stroke="#1287a5" stroke-width="1.5" stroke-linejoin="round"/>
  <path d="M8 48h48l3 8H5l3-8Z" fill="#05090b" stroke="#1fe7ff" stroke-width="1.8" stroke-linejoin="round"/>
  <path d="M32 13v42" stroke="url(#cyan)" stroke-width="3" stroke-linecap="round"/>
  <path d="M20 35h24M14 47h36" stroke="#f1bd5a" stroke-width="1.4" stroke-linecap="round" opacity=".78"/>
  <path d="M32 8 35 13 32 18 29 13 32 8Z" fill="url(#gold)"/>
  <path d="M32 7v-3" stroke="#1fe7ff" stroke-width="1.8" stroke-linecap="round"/>
</svg>
