<svg xmlns="http://www.w3.org/2000/svg" viewBox="0 0 1200 630" role="img" aria-label="The Digital Ziggurat social preview">
  <defs>
    <linearGradient id="bg" x1="0" x2="1" y1="0" y2="1">
      <stop offset="0" stop-color="#05070a"/>
      <stop offset=".55" stop-color="#071014"/>
      <stop offset="1" stop-color="#020405"/>
    </linearGradient>
    <linearGradient id="edge" x1="0" x2="1">
      <stop offset="0" stop-color="#20e4ff"/>
      <stop offset="1" stop-color="#f4c76b"/>
    </linearGradient>
    <filter id="glow" x="-40%" y="-40%" width="180%" height="180%">
      <feGaussianBlur stdDeviation="8" result="blur"/>
      <feMerge>
        <feMergeNode in="blur"/>
        <feMergeNode in="SourceGraphic"/>
      </feMerge>
    </filter>
  </defs>
  <rect width="1200" height="630" fill="url(#bg)"/>
  <path d="M0 466h1200" stroke="#20e4ff" stroke-opacity=".16"/>
  <path d="M124 526 600 92l476 434" fill="none" stroke="#20e4ff" stroke-opacity=".22" stroke-width="2"/>
  <g filter="url(#glow)">
    <path d="M600 112 704 220H496l104-108Z" fill="#f4c76b" fill-opacity=".94"/>
    <path d="M455 238h290l54 88H401l54-88Z" fill="#132329" stroke="url(#edge)" stroke-width="4"/>
    <path d="M360 348h480l67 104H293l67-104Z" fill="#0b1116" stroke="url(#edge)" stroke-width="4"/>
    <path d="M244 474h712l78 94H166l78-94Z" fill="#070c0f" stroke="url(#edge)" stroke-width="4"/>
  </g>
  <path d="M600 82v486" stroke="#20e4ff" stroke-width="3" stroke-opacity=".72"/>
  <text x="90" y="126" fill="#f4c76b" font-family="Inter, Arial, sans-serif" font-size="30" font-weight="800" letter-spacing="4">PUBLIC PROOF-OF-WORK MONUMENT</text>
  <text x="88" y="216" fill="#f8fdff" font-family="Inter, Arial, sans-serif" font-size="78" font-weight="900">The Digital</text>
  <text x="88" y="300" fill="#f8fdff" font-family="Inter, Arial, sans-serif" font-size="78" font-weight="900">Ziggurat</text>
  <text x="90" y="370" fill="#b9cad2" font-family="Inter, Arial, sans-serif" font-size="34" font-weight="700">Human flaws. Machine leverage. Public proof.</text>
  <text x="90" y="426" fill="#20e4ff" font-family="Inter, Arial, sans-serif" font-size="25" font-weight="800">Projects / build scars / AI-readable metadata / hireable capabilities</text>
</svg>
